<svg width="21" height="20" viewBox="0 0 21 20" fill="none" xmlns="http://www.w3.org/2000/svg">
<path d="M19.2823 15.2751C19.2823 15.5751 19.2156 15.8834 19.074 16.1834C18.9323 16.4834 18.749 16.7667 18.5073 17.0334C18.099 17.4834 17.649 17.8084 17.1406 18.0167C16.6406 18.2251 16.099 18.3334 15.5156 18.3334C14.6656 18.3334 13.7573 18.1334 12.799 17.7251C11.8406 17.3167 10.8823 16.7667 9.93229 16.0751C8.97396 15.3751 8.06563 14.6001 7.19896 13.7417C6.34063 12.8751 5.56562 11.9667 4.87396 11.0167C4.19062 10.0667 3.64063 9.11675 3.24063 8.17508C2.84063 7.22508 2.64062 6.31675 2.64062 5.45008C2.64062 4.88341 2.74062 4.34175 2.94062 3.84175C3.14062 3.33341 3.45729 2.86675 3.89896 2.45008C4.43229 1.92508 5.01563 1.66675 5.63229 1.66675C5.86563 1.66675 6.09896 1.71675 6.30729 1.81675C6.52396 1.91675 6.71563 2.06675 6.86563 2.28341L8.79896 5.00842C8.94896 5.21675 9.05729 5.40841 9.13229 5.59175C9.20729 5.76675 9.24896 5.94175 9.24896 6.10008C9.24896 6.30008 9.19063 6.50008 9.07396 6.69175C8.96563 6.88341 8.80729 7.08341 8.60729 7.28341L7.97396 7.94175C7.88229 8.03341 7.84063 8.14175 7.84063 8.27508C7.84063 8.34175 7.84896 8.40008 7.86563 8.46675C7.89063 8.53341 7.91563 8.58341 7.93229 8.63341C8.08229 8.90841 8.34063 9.26675 8.70729 9.70008C9.08229 10.1334 9.48229 10.5751 9.91562 11.0167C10.3656 11.4584 10.799 11.8667 11.2406 12.2417C11.674 12.6084 12.0323 12.8584 12.3156 13.0084C12.3573 13.0251 12.4073 13.0501 12.4656 13.0751C12.5323 13.1001 12.599 13.1084 12.674 13.1084C12.8156 13.1084 12.924 13.0584 13.0156 12.9667L13.649 12.3417C13.8573 12.1334 14.0573 11.9751 14.249 11.8751C14.4406 11.7584 14.6323 11.7001 14.8406 11.7001C14.999 11.7001 15.1656 11.7334 15.349 11.8084C15.5323 11.8834 15.724 11.9917 15.9323 12.1334L18.6906 14.0917C18.9073 14.2417 19.0573 14.4167 19.149 14.6251C19.2323 14.8334 19.2823 15.0417 19.2823 15.2751Z" stroke="white" stroke-width="1.5" stroke-miterlimit="10"/>
<path d="M16.3913 7.50016C16.3913 7.00016 15.9996 6.2335 15.4163 5.6085C14.8829 5.0335 14.1746 4.5835 13.4746 4.5835" stroke="white" stroke-width="1.5" stroke-linecap="round" stroke-linejoin="round"/>
<path d="M19.3079 7.50008C19.3079 4.27508 16.6996 1.66675 13.4746 1.66675" stroke="white" stroke-width="1.5" stroke-linecap="round" stroke-linejoin="round"/>
</svg>
