<svg width="21" height="20" viewBox="0 0 21 20" fill="none" xmlns="http://www.w3.org/2000/svg">
<path d="M6.80794 10C3.47461 10 3.47461 11.4917 3.47461 13.3333V14.1667C3.47461 16.4667 3.47461 18.3333 7.64128 18.3333H14.3079C17.6413 18.3333 18.4746 16.4667 18.4746 14.1667V13.3333C18.4746 11.4917 18.4746 10 15.1413 10C14.3079 10 14.0746 10.175 13.6413 10.5L12.7913 11.4C11.8079 12.45 10.1413 12.45 9.14961 11.4L8.30794 10.5C7.87461 10.175 7.64128 10 6.80794 10Z" stroke="white" stroke-width="1.5" stroke-miterlimit="10" stroke-linecap="round" stroke-linejoin="round"/>
<path d="M16.8073 10.0001V5.00008C16.8073 3.15841 16.8073 1.66675 13.474 1.66675H8.47396C5.14062 1.66675 5.14062 3.15841 5.14062 5.00008V10.0001" stroke="white" stroke-width="1.5" stroke-miterlimit="10" stroke-linecap="round" stroke-linejoin="round"/>
<path d="M9.76562 7.69165H12.5406" stroke="white" stroke-width="1.5" stroke-linecap="round" stroke-linejoin="round"/>
<path d="M9.07422 5.19165H13.2409" stroke="white" stroke-width="1.5" stroke-linecap="round" stroke-linejoin="round"/>
</svg>
