<svg width="40" height="39" viewBox="0 0 40 39" fill="none" xmlns="http://www.w3.org/2000/svg">
<circle cx="20.4746" cy="19.5" r="19.5" fill="white"/>
<path d="M16.1003 9.0835H24.8503C28.1836 9.0835 30.8919 11.7918 30.8919 15.1252V23.8752C30.8919 25.4775 30.2554 27.0142 29.1224 28.1473C27.9893 29.2803 26.4526 29.9168 24.8503 29.9168H16.1003C12.7669 29.9168 10.0586 27.2085 10.0586 23.8752V15.1252C10.0586 13.5228 10.6951 11.9861 11.8282 10.8531C12.9612 9.72003 14.4979 9.0835 16.1003 9.0835ZM15.8919 11.1668C14.8974 11.1668 13.9435 11.5619 13.2403 12.2652C12.537 12.9684 12.1419 13.9223 12.1419 14.9168V24.0835C12.1419 26.1564 13.819 27.8335 15.8919 27.8335H25.0586C26.0532 27.8335 27.007 27.4384 27.7102 26.7351C28.4135 26.0319 28.8086 25.0781 28.8086 24.0835V14.9168C28.8086 12.8439 27.1315 11.1668 25.0586 11.1668H15.8919ZM25.944 12.7293C26.2893 12.7293 26.6205 12.8665 26.8647 13.1107C27.1089 13.3549 27.2461 13.6861 27.2461 14.0314C27.2461 14.3767 27.1089 14.7079 26.8647 14.9521C26.6205 15.1963 26.2893 15.3335 25.944 15.3335C25.5987 15.3335 25.2675 15.1963 25.0233 14.9521C24.7791 14.7079 24.6419 14.3767 24.6419 14.0314C24.6419 13.6861 24.7791 13.3549 25.0233 13.1107C25.2675 12.8665 25.5987 12.7293 25.944 12.7293ZM20.4753 14.2918C21.8566 14.2918 23.1814 14.8406 24.1581 15.8173C25.1349 16.7941 25.6836 18.1188 25.6836 19.5002C25.6836 20.8815 25.1349 22.2063 24.1581 23.183C23.1814 24.1598 21.8566 24.7085 20.4753 24.7085C19.0939 24.7085 17.7692 24.1598 16.7924 23.183C15.8157 22.2063 15.2669 20.8815 15.2669 19.5002C15.2669 18.1188 15.8157 16.7941 16.7924 15.8173C17.7692 14.8406 19.0939 14.2918 20.4753 14.2918ZM20.4753 16.3752C19.6465 16.3752 18.8516 16.7044 18.2656 17.2905C17.6795 17.8765 17.3503 18.6714 17.3503 19.5002C17.3503 20.329 17.6795 21.1238 18.2656 21.7099C18.8516 22.2959 19.6465 22.6252 20.4753 22.6252C21.3041 22.6252 22.0989 22.2959 22.685 21.7099C23.271 21.1238 23.6003 20.329 23.6003 19.5002C23.6003 18.6714 23.271 17.8765 22.685 17.2905C22.0989 16.7044 21.3041 16.3752 20.4753 16.3752Z" fill="#61C0BF"/>
</svg>
