<svg width="40" height="39" viewBox="0 0 40 39" fill="none" xmlns="http://www.w3.org/2000/svg">
<circle cx="20.4746" cy="19.5" r="19.5" fill="white"/>
<path d="M15.3366 11.5833C15.3363 12.0695 15.143 12.5357 14.799 12.8794C14.455 13.223 13.9886 13.4159 13.5023 13.4157C13.0161 13.4154 12.5499 13.2221 12.2062 12.8781C11.8626 12.5341 11.6697 12.0677 11.6699 11.5814C11.6702 11.0952 11.8636 10.629 12.2075 10.2853C12.5515 9.9417 13.0179 9.74878 13.5042 9.74902C13.9904 9.74927 14.4566 9.94265 14.8003 10.2866C15.1439 10.6306 15.3368 11.097 15.3366 11.5833ZM15.3916 14.7733H11.7249V26.2499H15.3916V14.7733ZM21.1849 14.7733H17.5366V26.2499H21.1483V20.2274C21.1483 16.8724 25.5208 16.5608 25.5208 20.2274V26.2499H29.1416V18.9808C29.1416 13.3249 22.6699 13.5358 21.1483 16.3133L21.1849 14.7733Z" fill="#61C0BF"/>
</svg>
