<svg width="40" height="39" viewBox="0 0 40 39" fill="none" xmlns="http://www.w3.org/2000/svg">
<circle cx="20.4746" cy="19.5" r="19.5" fill="white"/>
<path d="M30.5634 14.4998C29.8576 14.8207 29.0967 15.0315 28.3084 15.1323C29.1151 14.6465 29.7384 13.8765 30.0317 12.9507C29.2709 13.409 28.4276 13.7298 27.5384 13.9132C26.8142 13.1248 25.7967 12.6665 24.6417 12.6665C22.4876 12.6665 20.7276 14.4265 20.7276 16.599C20.7276 16.9107 20.7642 17.2132 20.8284 17.4973C17.5651 17.3323 14.6592 15.7648 12.7251 13.3907C12.3859 13.9682 12.1934 14.6465 12.1934 15.3615C12.1934 16.7273 12.8809 17.9373 13.9442 18.6248C13.2934 18.6248 12.6884 18.4415 12.1567 18.1665V18.194C12.1567 20.1007 13.5134 21.6957 15.3101 22.0532C14.7332 22.211 14.1276 22.233 13.5409 22.1173C13.7899 22.8988 14.2775 23.5825 14.9352 24.0725C15.5928 24.5625 16.3875 24.8341 17.2076 24.849C15.8175 25.9494 14.0945 26.5442 12.3217 26.5357C12.0101 26.5357 11.6984 26.5173 11.3867 26.4807C13.1284 27.599 15.2001 28.2498 17.4184 28.2498C24.6417 28.2498 28.6109 22.2548 28.6109 17.0573C28.6109 16.8832 28.6109 16.7182 28.6017 16.544C29.3717 15.994 30.0317 15.2973 30.5634 14.4998Z" fill="#61C0BF"/>
</svg>
